# Blender 4.0.2
# www.blender.org
mtllib fireworks_object.mtl
o cylinder_low
v 0.000000 -1.000000 -1.266866
v 0.000000 1.000000 -1.000000
v 0.484809 -1.000000 -1.170432
v 0.382683 1.000000 -0.923880
v 0.895810 -1.000000 -0.895810
v 0.707107 1.000000 -0.707107
v 1.170432 -1.000000 -0.484809
v 0.923880 1.000000 -0.382683
v 1.266866 -1.000000 -0.000000
v 1.000000 1.000000 0.000000
v 1.170432 -1.000000 0.484809
v 0.923880 1.000000 0.382683
v 0.895810 -1.000000 0.895810
v 0.707107 1.000000 0.707107
v 0.484809 -1.000000 1.170432
v 0.382683 1.000000 0.923880
v 0.000000 -1.000000 1.266866
v 0.000000 1.000000 1.000000
v -0.484809 -1.000000 1.170432
v -0.382683 1.000000 0.923880
v -0.895810 -1.000000 0.895810
v -0.707107 1.000000 0.707107
v -1.170432 -1.000000 0.484809
v -0.923880 1.000000 0.382683
v -1.266866 -1.000000 -0.000000
v -1.000000 1.000000 0.000000
v -1.170432 -1.000000 -0.484809
v -0.923880 1.000000 -0.382683
v -0.895810 -1.000000 -0.895810
v -0.707107 1.000000 -0.707107
v -0.484809 -1.000000 -1.170432
v -0.382683 1.000000 -0.923880
v 0.289582 1.000000 -0.699112
v -0.000000 1.000000 -0.756714
v 0.535077 1.000000 -0.535077
v 0.699112 1.000000 -0.289582
v 0.756714 1.000000 0.000000
v 0.699112 1.000000 0.289582
v 0.535077 1.000000 0.535077
v 0.289582 1.000000 0.699112
v -0.000000 1.000000 0.756714
v -0.289582 1.000000 0.699112
v -0.535077 1.000000 0.535077
v -0.699112 1.000000 0.289582
v -0.756714 1.000000 0.000000
v -0.699112 1.000000 -0.289582
v -0.535077 1.000000 -0.535077
v -0.289582 1.000000 -0.699112
v 0.289605 -0.040317 -0.699168
v -0.000000 -0.040317 -0.756774
v 0.535120 -0.040317 -0.535120
v 0.699168 -0.040317 -0.289605
v 0.756774 -0.040317 0.000000
v 0.699168 -0.040317 0.289605
v 0.535120 -0.040317 0.535120
v 0.289605 -0.040317 0.699168
v -0.000000 -0.040317 0.756774
v -0.289605 -0.040317 0.699168
v -0.535120 -0.040317 0.535120
v -0.699168 -0.040317 0.289605
v -0.756774 -0.040317 0.000000
v -0.699168 -0.040317 -0.289605
v -0.535120 -0.040317 -0.535120
v -0.289605 -0.040317 -0.699168
v 0.000000 -0.287208 -1.069188
v 0.000000 0.333333 -1.000000
v 0.382683 0.333333 -0.923880
v 0.409160 -0.287208 -0.987800
v 0.707107 0.333333 -0.707107
v 0.756030 -0.287208 -0.756030
v 0.923880 0.333333 -0.382683
v 0.987800 -0.287208 -0.409160
v 1.000000 0.333333 0.000000
v 1.069188 -0.287208 -0.000000
v 0.923880 0.333333 0.382683
v 0.987800 -0.287208 0.409160
v 0.707107 0.333333 0.707107
v 0.756030 -0.287208 0.756030
v 0.382683 0.333333 0.923880
v 0.409160 -0.287208 0.987800
v 0.000000 0.333333 1.000000
v 0.000000 -0.287208 1.069188
v -0.382683 0.333333 0.923880
v -0.409160 -0.287208 0.987800
v -0.707107 0.333333 0.707107
v -0.756030 -0.287208 0.756030
v -0.923880 0.333333 0.382683
v -0.987800 -0.287208 0.409160
v -1.000000 0.333333 0.000000
v -1.069188 -0.287208 -0.000000
v -0.923880 0.333333 -0.382683
v -0.987800 -0.287208 -0.409160
v -0.707107 0.333333 -0.707107
v -0.756030 -0.287208 -0.756030
v -0.382683 0.333333 -0.923880
v -0.409160 -0.287208 -0.987800
vn -0.0000 -0.0000 -1.0000
vn 0.3821 0.0559 -0.9224
vn -0.0000 0.0559 -0.9984
vn 0.3827 -0.0000 -0.9239
vn 0.7060 0.0559 -0.7060
vn 0.7071 -0.0000 -0.7071
vn 0.9224 0.0559 -0.3821
vn 0.9239 -0.0000 -0.3827
vn 0.9984 0.0559 -0.0000
vn 1.0000 -0.0000 -0.0000
vn 0.9224 0.0559 0.3821
vn 0.9239 -0.0000 0.3827
vn 0.7060 0.0559 0.7060
vn 0.7071 -0.0000 0.7071
vn 0.3821 0.0559 0.9224
vn 0.3827 -0.0000 0.9239
vn -0.0000 0.0559 0.9984
vn -0.0000 -0.0000 1.0000
vn -0.3821 0.0559 0.9224
vn -0.3827 -0.0000 0.9239
vn -0.7060 0.0559 0.7060
vn -0.7071 -0.0000 0.7071
vn -0.9224 0.0559 0.3821
vn -0.9239 -0.0000 0.3827
vn -0.9984 0.0559 -0.0000
vn -1.0000 -0.0000 -0.0000
vn -0.9224 0.0559 -0.3821
vn -0.9239 -0.0000 -0.3827
vn -0.7060 0.0559 -0.7060
vn -0.0000 1.0000 -0.0000
vn -0.7071 -0.0000 -0.7071
vn -0.3821 0.0559 -0.9224
vn -0.3827 -0.0000 -0.9239
vn -0.0000 -1.0000 -0.0000
vn 0.9239 -0.0001 -0.3827
vn 1.0000 -0.0001 -0.0000
vn -1.0000 -0.0001 -0.0000
vn -0.9239 -0.0001 -0.3827
vn 0.9239 -0.0001 0.3827
vn -0.7071 -0.0001 -0.7071
vn 0.7071 -0.0001 0.7071
vn -0.3827 -0.0001 -0.9239
vn 0.3827 -0.0001 0.9239
vn -0.0000 -0.0001 -1.0000
vn -0.0000 -0.0001 1.0000
vn -0.3827 -0.0001 0.9239
vn 0.3827 -0.0001 -0.9239
vn -0.7071 -0.0001 0.7071
vn 0.7071 -0.0001 -0.7071
vn -0.9239 -0.0001 0.3827
vn -0.3756 0.1915 -0.9068
vn -0.0000 0.2672 -0.9636
vn -0.3688 0.2672 -0.8903
vn -0.0000 0.1915 -0.9815
vn -0.6814 0.2672 -0.6814
vn -0.6940 0.1915 -0.6940
vn -0.9068 0.1915 -0.3756
vn -0.8903 0.2672 -0.3688
vn -0.9815 0.1915 -0.0000
vn -0.9636 0.2672 -0.0000
vn -0.9068 0.1915 0.3756
vn -0.8903 0.2672 0.3688
vn -0.6814 0.2672 0.6814
vn -0.6940 0.1915 0.6940
vn -0.3756 0.1915 0.9068
vn -0.3688 0.2672 0.8903
vn -0.0000 0.1915 0.9815
vn -0.0000 0.2672 0.9636
vn 0.3756 0.1915 0.9068
vn 0.3688 0.2672 0.8903
vn 0.6814 0.2672 0.6814
vn 0.6940 0.1915 0.6940
vn 0.9068 0.1915 0.3756
vn 0.8903 0.2672 0.3688
vn 0.9815 0.1915 -0.0000
vn 0.9636 0.2672 -0.0000
vn 0.8903 0.2672 -0.3688
vn 0.9068 0.1915 -0.3756
vn 0.6814 0.2672 -0.6814
vn 0.6940 0.1915 -0.6940
vn 0.3756 0.1915 -0.9068
vn 0.3688 0.2672 -0.8903
vt 0.001548 0.637913
vt 0.076383 0.755868
vt 0.001548 0.755868
vt 0.076383 0.637913
vt 0.151219 0.755868
vt 0.151219 0.637913
vt 0.226055 0.755868
vt 0.226055 0.637913
vt 0.300891 0.755868
vt 0.300891 0.637913
vt 0.375727 0.755868
vt 0.375727 0.637913
vt 0.450562 0.755868
vt 0.450562 0.637913
vt 0.525398 0.755868
vt 0.525398 0.637913
vt 0.600234 0.755868
vt 0.001553 0.600235
vt 0.119509 0.525399
vt 0.119509 0.600235
vt 0.001553 0.525399
vt 0.119509 0.450564
vt 0.001553 0.450564
vt 0.119509 0.375728
vt 0.001553 0.375728
vt 0.119509 0.300892
vt 0.001553 0.300892
vt 0.119509 0.226056
vt 0.001553 0.226056
vt 0.119509 0.151221
vt 0.870656 0.606333
vt 0.913540 0.545921
vt 0.913540 0.606333
vt 0.001554 0.151221
vt 0.119509 0.076385
vt 0.001554 0.076385
vt 0.119509 0.001549
vt 0.397622 0.347975
vt 0.363953 0.178710
vt 0.629100 0.001545
vt 0.626733 0.447841
vt 0.574180 0.633007
vt 0.574180 0.447842
vt 0.870656 0.908388
vt 0.913540 0.847977
vt 0.913540 0.908388
vt 0.870656 0.425099
vt 0.913540 0.485510
vt 0.870656 0.485510
vt 0.916641 0.666747
vt 0.959526 0.727159
vt 0.916641 0.727159
vt 0.870656 0.727155
vt 0.913540 0.787566
vt 0.870656 0.787566
vt 0.916641 0.606336
vt 0.959526 0.545925
vt 0.959526 0.606336
vt 0.916641 0.847981
vt 0.959526 0.908392
vt 0.916641 0.908392
vt 0.870656 0.666744
vt 0.913540 0.666744
vt 0.916641 0.485514
vt 0.959526 0.425103
vt 0.959526 0.485514
vt 0.959526 0.787570
vt 0.916641 0.787570
vt 0.870656 0.545921
vt 0.870656 0.847977
vt 0.959526 0.666747
vt 0.913540 0.727155
vt 0.916641 0.545925
vt 0.959526 0.847981
vt 0.603334 0.743742
vt 0.761722 0.637911
vt 0.867553 0.796299
vt 0.994518 0.211777
vt 0.809354 0.159221
vt 0.994519 0.159225
vt 0.521624 0.633007
vt 0.521628 0.447841
vt 0.809356 0.106664
vt 0.994521 0.106673
vt 0.469068 0.633005
vt 0.469076 0.447839
vt 0.994524 0.054121
vt 0.809359 0.054108
vt 0.416511 0.633002
vt 0.416524 0.447836
vt 0.994528 0.001568
vt 0.809363 0.001551
vt 0.994528 0.421986
vt 0.809359 0.369446
vt 0.994524 0.369434
vt 0.363955 0.632997
vt 0.363972 0.447832
vt 0.731837 0.447837
vt 0.784406 0.632998
vt 0.731850 0.633002
vt 0.809356 0.316890
vt 0.994521 0.316881
vt 0.679285 0.447840
vt 0.679293 0.633005
vt 0.809354 0.264333
vt 0.994519 0.264329
vt 0.626737 0.633007
vt 0.809353 0.211777
vt 0.229983 0.076385
vt 0.360860 0.001549
vt 0.360860 0.076385
vt 0.229983 0.001549
vt 0.360860 0.151221
vt 0.229983 0.151221
vt 0.229983 0.226056
vt 0.360860 0.226056
vt 0.229983 0.300892
vt 0.360860 0.300892
vt 0.229983 0.375728
vt 0.360860 0.375728
vt 0.360860 0.450564
vt 0.229983 0.450564
vt 0.229983 0.525399
vt 0.360860 0.525400
vt 0.229983 0.600235
vt 0.360860 0.600235
vt 0.525398 0.866343
vt 0.600234 0.997219
vt 0.525398 0.997219
vt 0.600234 0.866343
vt 0.450562 0.997219
vt 0.450562 0.866343
vt 0.375726 0.866343
vt 0.375726 0.997219
vt 0.300891 0.866343
vt 0.300891 0.997219
vt 0.226055 0.997219
vt 0.226055 0.866343
vt 0.151219 0.997219
vt 0.151219 0.866343
vt 0.076383 0.866343
vt 0.076383 0.997219
vt 0.001548 0.866343
vt 0.001548 0.997219
vt 0.600234 0.637913
vt 0.001554 0.001549
vt 0.710384 0.035214
vt 0.772596 0.097426
vt 0.806265 0.178710
vt 0.806265 0.266691
vt 0.772596 0.347975
vt 0.710383 0.410187
vt 0.629099 0.443856
vt 0.541118 0.443856
vt 0.459834 0.410187
vt 0.363953 0.266691
vt 0.397622 0.097426
vt 0.459834 0.035213
vt 0.541118 0.001545
vt 0.913540 0.425099
vt 0.916641 0.425103
vt 0.847441 0.844855
vt 0.709165 0.902130
vt 0.810278 0.882018
vt 0.761722 0.902130
vt 0.660610 0.882017
vt 0.623447 0.844855
vt 0.603334 0.796299
vt 0.623447 0.695187
vt 0.660610 0.658024
vt 0.709166 0.637911
vt 0.810278 0.658024
vt 0.847441 0.695187
vt 0.867553 0.743742
vt 0.809363 0.422003
vt 0.784389 0.447832
s 1
usemtl Material.003
f 2/1/1 67/2/2 66/3/3
f 4/4/4 69/5/5 67/2/2
f 6/6/6 71/7/7 69/5/5
f 8/8/8 73/9/9 71/7/7
f 10/10/10 75/11/11 73/9/9
f 12/12/12 77/13/13 75/11/11
f 14/14/14 79/15/15 77/13/13
f 16/16/16 81/17/17 79/15/15
f 18/18/18 83/19/19 81/20/17
f 20/21/20 85/22/21 83/19/19
f 22/23/22 87/24/23 85/22/21
f 24/25/24 89/26/25 87/24/23
f 26/27/26 91/28/27 89/26/25
f 28/29/28 93/30/29 91/28/27
f 8/31/30 35/32/30 36/33/30
f 30/34/31 95/35/32 93/30/29
f 32/36/33 66/37/3 95/35/32
f 19/38/34 23/39/34 31/40/34
f 44/41/35 61/42/36 45/43/36
f 18/44/30 40/45/30 41/46/30
f 2/47/30 33/48/30 4/49/30
f 26/50/30 46/51/30 28/52/30
f 12/53/30 39/54/30 14/55/30
f 24/56/30 43/57/30 44/58/30
f 32/59/30 34/60/30 2/61/30
f 10/62/30 36/33/30 37/63/30
f 20/64/30 41/65/30 42/66/30
f 28/52/30 47/67/30 30/68/30
f 4/49/30 35/32/30 6/69/30
f 16/70/30 39/54/30 40/45/30
f 26/50/30 44/58/30 45/71/30
f 10/62/30 38/72/30 12/53/30
f 20/64/30 43/57/30 22/73/30
f 30/68/30 48/74/30 32/59/30
f 59/75/30 55/76/30 51/77/30
f 37/78/37 54/79/38 38/80/38
f 45/43/36 62/81/39 46/82/39
f 38/80/38 55/83/40 39/84/40
f 46/82/39 63/85/41 47/86/41
f 40/87/42 55/83/40 56/88/42
f 47/86/41 64/89/43 48/90/43
f 41/91/44 56/88/42 57/92/44
f 34/93/45 49/94/46 33/95/46
f 48/90/43 50/96/45 34/97/45
f 42/98/47 57/99/44 58/100/47
f 33/95/46 51/101/48 35/102/48
f 43/103/49 58/100/47 59/104/49
f 35/102/48 52/105/50 36/106/50
f 43/103/49 60/107/35 44/41/35
f 37/78/37 52/105/50 53/108/37
f 96/109/51 1/110/52 31/111/53
f 95/35/32 65/112/54 96/109/51
f 29/113/55 96/109/51 31/111/53
f 93/30/29 96/109/51 94/114/56
f 92/115/57 29/113/55 27/116/58
f 92/115/57 93/30/29 94/114/56
f 90/117/59 27/116/58 25/118/60
f 89/26/25 92/115/57 90/117/59
f 88/119/61 25/118/60 23/120/62
f 87/24/23 90/117/59 88/119/61
f 21/121/63 88/119/61 23/120/62
f 85/22/21 88/119/61 86/122/64
f 84/123/65 21/121/63 19/124/66
f 84/123/65 85/22/21 86/122/64
f 82/125/67 19/124/66 17/126/68
f 81/20/17 84/123/65 82/125/67
f 80/127/69 17/128/68 15/129/70
f 79/15/15 82/130/67 80/127/69
f 13/131/71 80/127/69 15/129/70
f 77/13/13 80/127/69 78/132/72
f 76/133/73 13/131/71 11/134/74
f 76/133/73 77/13/13 78/132/72
f 74/135/75 11/134/74 9/136/76
f 73/9/9 76/133/73 74/135/75
f 7/137/77 74/135/75 9/136/76
f 71/7/7 74/135/75 72/138/78
f 5/139/79 72/138/78 7/137/77
f 69/5/5 72/138/78 70/140/80
f 68/141/81 5/139/79 3/142/82
f 68/141/81 69/5/5 70/140/80
f 65/143/54 3/142/82 1/144/52
f 66/3/3 68/141/81 65/143/54
f 2/1/1 4/4/4 67/2/2
f 4/4/4 6/6/6 69/5/5
f 6/6/6 8/8/8 71/7/7
f 8/8/8 10/10/10 73/9/9
f 10/10/10 12/12/12 75/11/11
f 12/12/12 14/14/14 77/13/13
f 14/14/14 16/16/16 79/15/15
f 16/16/16 18/145/18 81/17/17
f 18/18/18 20/21/20 83/19/19
f 20/21/20 22/23/22 85/22/21
f 22/23/22 24/25/24 87/24/23
f 24/25/24 26/27/26 89/26/25
f 26/27/26 28/29/28 91/28/27
f 28/29/28 30/34/31 93/30/29
f 8/31/30 6/69/30 35/32/30
f 30/34/31 32/36/33 95/35/32
f 32/36/33 2/146/1 66/37/3
f 31/40/34 1/147/34 3/148/34
f 3/148/34 5/149/34 7/150/34
f 7/150/34 9/151/34 11/152/34
f 11/152/34 13/153/34 15/154/34
f 15/154/34 17/155/34 19/38/34
f 19/38/34 21/156/34 23/39/34
f 23/39/34 25/157/34 27/158/34
f 27/158/34 29/159/34 23/39/34
f 29/159/34 31/40/34 23/39/34
f 31/40/34 3/148/34 15/154/34
f 3/148/34 7/150/34 15/154/34
f 7/150/34 11/152/34 15/154/34
f 15/154/34 19/38/34 31/40/34
f 44/41/35 60/107/35 61/42/36
f 18/44/30 16/70/30 40/45/30
f 2/47/30 34/160/30 33/48/30
f 26/50/30 45/71/30 46/51/30
f 12/53/30 38/72/30 39/54/30
f 24/56/30 22/73/30 43/57/30
f 32/59/30 48/74/30 34/60/30
f 10/62/30 8/31/30 36/33/30
f 20/64/30 18/161/30 41/65/30
f 28/52/30 46/51/30 47/67/30
f 4/49/30 33/48/30 35/32/30
f 16/70/30 14/55/30 39/54/30
f 26/50/30 24/56/30 44/58/30
f 10/62/30 37/63/30 38/72/30
f 20/64/30 42/66/30 43/57/30
f 30/68/30 47/67/30 48/74/30
f 51/77/30 49/162/30 63/163/30
f 49/162/30 50/164/30 63/163/30
f 50/164/30 64/165/30 63/163/30
f 63/163/30 62/166/30 61/167/30
f 61/167/30 60/168/30 59/75/30
f 59/75/30 58/169/30 57/170/30
f 57/170/30 56/171/30 59/75/30
f 56/171/30 55/76/30 59/75/30
f 55/76/30 54/172/30 53/173/30
f 53/173/30 52/174/30 51/77/30
f 63/163/30 61/167/30 59/75/30
f 55/76/30 53/173/30 51/77/30
f 51/77/30 63/163/30 59/75/30
f 37/78/37 53/108/37 54/79/38
f 45/43/36 61/42/36 62/81/39
f 38/80/38 54/79/38 55/83/40
f 46/82/39 62/81/39 63/85/41
f 40/87/42 39/84/40 55/83/40
f 47/86/41 63/85/41 64/89/43
f 41/91/44 40/87/42 56/88/42
f 34/93/45 50/175/45 49/94/46
f 48/90/43 64/89/43 50/96/45
f 42/98/47 41/176/44 57/99/44
f 33/95/46 49/94/46 51/101/48
f 43/103/49 42/98/47 58/100/47
f 35/102/48 51/101/48 52/105/50
f 43/103/49 59/104/49 60/107/35
f 37/78/37 36/106/50 52/105/50
f 96/109/51 65/112/54 1/110/52
f 95/35/32 66/37/3 65/112/54
f 29/113/55 94/114/56 96/109/51
f 93/30/29 95/35/32 96/109/51
f 92/115/57 94/114/56 29/113/55
f 92/115/57 91/28/27 93/30/29
f 90/117/59 92/115/57 27/116/58
f 89/26/25 91/28/27 92/115/57
f 88/119/61 90/117/59 25/118/60
f 87/24/23 89/26/25 90/117/59
f 21/121/63 86/122/64 88/119/61
f 85/22/21 87/24/23 88/119/61
f 84/123/65 86/122/64 21/121/63
f 84/123/65 83/19/19 85/22/21
f 82/125/67 84/123/65 19/124/66
f 81/20/17 83/19/19 84/123/65
f 80/127/69 82/130/67 17/128/68
f 79/15/15 81/17/17 82/130/67
f 13/131/71 78/132/72 80/127/69
f 77/13/13 79/15/15 80/127/69
f 76/133/73 78/132/72 13/131/71
f 76/133/73 75/11/11 77/13/13
f 74/135/75 76/133/73 11/134/74
f 73/9/9 75/11/11 76/133/73
f 7/137/77 72/138/78 74/135/75
f 71/7/7 73/9/9 74/135/75
f 5/139/79 70/140/80 72/138/78
f 69/5/5 71/7/7 72/138/78
f 68/141/81 70/140/80 5/139/79
f 68/141/81 67/2/2 69/5/5
f 65/143/54 68/141/81 3/142/82
f 66/3/3 67/2/2 68/141/81
