# Blender 4.0.2
# www.blender.org
mtllib torus.mtl
o SuperToroid.001
v 1.840000 0.000000 0.000000
v 1.803827 0.135000 0.000000
v 1.705000 0.233827 0.000000
v 1.570000 0.270000 0.000000
v 1.435000 0.233827 0.000000
v 1.336173 0.135000 0.000000
v 1.300000 0.000000 0.000000
v 1.336173 -0.135000 0.000000
v 1.435000 -0.233827 0.000000
v 1.570000 -0.270000 0.000000
v 1.705000 -0.233827 0.000000
v 1.803827 -0.135000 0.000000
v 1.777304 0.000000 -0.476227
v 1.742363 0.135000 -0.466865
v 1.646904 0.233827 -0.441286
v 1.516504 0.270000 -0.406346
v 1.386104 0.233827 -0.371405
v 1.290644 0.135000 -0.345827
v 1.255704 0.000000 -0.336465
v 1.290644 -0.135000 -0.345827
v 1.386104 -0.233827 -0.371405
v 1.516504 -0.270000 -0.406346
v 1.646904 -0.233827 -0.441286
v 1.742363 -0.135000 -0.466865
v 1.593487 0.000000 -0.920000
v 1.562160 0.135000 -0.901913
v 1.476573 0.233827 -0.852500
v 1.359660 0.270000 -0.785000
v 1.242746 0.233827 -0.717500
v 1.157160 0.135000 -0.668087
v 1.125833 0.000000 -0.650000
v 1.157160 -0.135000 -0.668087
v 1.242746 -0.233827 -0.717500
v 1.359660 -0.270000 -0.785000
v 1.476573 -0.233827 -0.852500
v 1.562160 -0.135000 -0.901913
v 1.301077 0.000000 -1.301077
v 1.275498 0.135000 -1.275498
v 1.205617 0.233827 -1.205617
v 1.110158 0.270000 -1.110158
v 1.014698 0.233827 -1.014698
v 0.944817 0.135000 -0.944817
v 0.919239 0.000000 -0.919239
v 0.944817 -0.135000 -0.944817
v 1.014698 -0.233827 -1.014698
v 1.110158 -0.270000 -1.110158
v 1.205617 -0.233827 -1.205617
v 1.275498 -0.135000 -1.275498
v 0.920000 0.000000 -1.593487
v 0.901913 0.135000 -1.562160
v 0.852500 0.233827 -1.476573
v 0.785000 0.270000 -1.359660
v 0.717500 0.233827 -1.242746
v 0.668087 0.135000 -1.157160
v 0.650000 0.000000 -1.125833
v 0.668087 -0.135000 -1.157160
v 0.717500 -0.233827 -1.242746
v 0.785000 -0.270000 -1.359660
v 0.852500 -0.233827 -1.476573
v 0.901913 -0.135000 -1.562160
v 0.476227 0.000000 -1.777304
v 0.466865 0.135000 -1.742363
v 0.441286 0.233827 -1.646904
v 0.406346 0.270000 -1.516504
v 0.371405 0.233827 -1.386104
v 0.345827 0.135000 -1.290644
v 0.336465 0.000000 -1.255704
v 0.345827 -0.135000 -1.290644
v 0.371405 -0.233827 -1.386104
v 0.406346 -0.270000 -1.516504
v 0.441286 -0.233827 -1.646904
v 0.466865 -0.135000 -1.742363
v 0.000000 0.000000 -1.840000
v 0.000000 0.135000 -1.803827
v 0.000000 0.233827 -1.705000
v 0.000000 0.270000 -1.570000
v 0.000000 0.233827 -1.435000
v 0.000000 0.135000 -1.336173
v 0.000000 0.000000 -1.300000
v 0.000000 -0.135000 -1.336173
v 0.000000 -0.233827 -1.435000
v 0.000000 -0.270000 -1.570000
v 0.000000 -0.233827 -1.705000
v 0.000000 -0.135000 -1.803827
v -0.476227 0.000000 -1.777304
v -0.466865 0.135000 -1.742363
v -0.441286 0.233827 -1.646904
v -0.406346 0.270000 -1.516504
v -0.371405 0.233827 -1.386104
v -0.345827 0.135000 -1.290644
v -0.336465 0.000000 -1.255704
v -0.345827 -0.135000 -1.290644
v -0.371405 -0.233827 -1.386104
v -0.406346 -0.270000 -1.516504
v -0.441286 -0.233827 -1.646904
v -0.466865 -0.135000 -1.742363
v -0.920000 0.000000 -1.593487
v -0.901913 0.135000 -1.562160
v -0.852500 0.233827 -1.476573
v -0.785000 0.270000 -1.359660
v -0.717500 0.233827 -1.242746
v -0.668087 0.135000 -1.157160
v -0.650000 0.000000 -1.125833
v -0.668087 -0.135000 -1.157160
v -0.717500 -0.233827 -1.242746
v -0.785000 -0.270000 -1.359660
v -0.852500 -0.233827 -1.476573
v -0.901913 -0.135000 -1.562160
v -1.301077 0.000000 -1.301077
v -1.275498 0.135000 -1.275498
v -1.205617 0.233827 -1.205617
v -1.110158 0.270000 -1.110158
v -1.014698 0.233827 -1.014698
v -0.944817 0.135000 -0.944817
v -0.919239 0.000000 -0.919239
v -0.944817 -0.135000 -0.944817
v -1.014698 -0.233827 -1.014698
v -1.110158 -0.270000 -1.110158
v -1.205617 -0.233827 -1.205617
v -1.275498 -0.135000 -1.275498
v -1.593487 0.000000 -0.920000
v -1.562160 0.135000 -0.901913
v -1.476573 0.233827 -0.852500
v -1.359660 0.270000 -0.785000
v -1.242746 0.233827 -0.717500
v -1.157160 0.135000 -0.668087
v -1.125833 0.000000 -0.650000
v -1.157160 -0.135000 -0.668087
v -1.242746 -0.233827 -0.717500
v -1.359660 -0.270000 -0.785000
v -1.476573 -0.233827 -0.852500
v -1.562160 -0.135000 -0.901913
v -1.777304 0.000000 -0.476227
v -1.742363 0.135000 -0.466865
v -1.646904 0.233827 -0.441286
v -1.516504 0.270000 -0.406346
v -1.386104 0.233827 -0.371405
v -1.290644 0.135000 -0.345827
v -1.255704 0.000000 -0.336465
v -1.290644 -0.135000 -0.345827
v -1.386104 -0.233827 -0.371405
v -1.516504 -0.270000 -0.406346
v -1.646904 -0.233827 -0.441286
v -1.742363 -0.135000 -0.466865
v -1.840000 0.000000 -0.000000
v -1.803827 0.135000 -0.000000
v -1.705000 0.233827 -0.000000
v -1.570000 0.270000 -0.000000
v -1.435000 0.233827 -0.000000
v -1.336173 0.135000 -0.000000
v -1.300000 0.000000 -0.000000
v -1.336173 -0.135000 -0.000000
v -1.435000 -0.233827 -0.000000
v -1.570000 -0.270000 -0.000000
v -1.705000 -0.233827 -0.000000
v -1.803827 -0.135000 -0.000000
v -1.777304 0.000000 0.476227
v -1.742363 0.135000 0.466865
v -1.646904 0.233827 0.441286
v -1.516504 0.270000 0.406346
v -1.386104 0.233827 0.371405
v -1.290644 0.135000 0.345827
v -1.255704 0.000000 0.336465
v -1.290644 -0.135000 0.345827
v -1.386104 -0.233827 0.371405
v -1.516504 -0.270000 0.406346
v -1.646904 -0.233827 0.441286
v -1.742363 -0.135000 0.466865
v -1.593487 0.000000 0.920000
v -1.562160 0.135000 0.901913
v -1.476573 0.233827 0.852500
v -1.359660 0.270000 0.785000
v -1.242746 0.233827 0.717500
v -1.157160 0.135000 0.668087
v -1.125833 0.000000 0.650000
v -1.157160 -0.135000 0.668087
v -1.242746 -0.233827 0.717500
v -1.359660 -0.270000 0.785000
v -1.476573 -0.233827 0.852500
v -1.562160 -0.135000 0.901913
v -1.301077 0.000000 1.301077
v -1.275498 0.135000 1.275498
v -1.205617 0.233827 1.205617
v -1.110158 0.270000 1.110158
v -1.014698 0.233827 1.014698
v -0.944817 0.135000 0.944817
v -0.919239 0.000000 0.919239
v -0.944817 -0.135000 0.944817
v -1.014698 -0.233827 1.014698
v -1.110158 -0.270000 1.110158
v -1.205617 -0.233827 1.205617
v -1.275498 -0.135000 1.275498
v -0.920000 0.000000 1.593487
v -0.901913 0.135000 1.562160
v -0.852500 0.233827 1.476573
v -0.785000 0.270000 1.359660
v -0.717500 0.233827 1.242746
v -0.668087 0.135000 1.157160
v -0.650000 0.000000 1.125833
v -0.668087 -0.135000 1.157160
v -0.717500 -0.233827 1.242746
v -0.785000 -0.270000 1.359660
v -0.852500 -0.233827 1.476573
v -0.901913 -0.135000 1.562160
v -0.476227 0.000000 1.777304
v -0.466865 0.135000 1.742363
v -0.441286 0.233827 1.646904
v -0.406346 0.270000 1.516504
v -0.371405 0.233827 1.386104
v -0.345827 0.135000 1.290644
v -0.336465 0.000000 1.255704
v -0.345827 -0.135000 1.290644
v -0.371405 -0.233827 1.386104
v -0.406346 -0.270000 1.516504
v -0.441286 -0.233827 1.646904
v -0.466865 -0.135000 1.742363
v -0.000000 0.000000 1.840000
v -0.000000 0.135000 1.803827
v -0.000000 0.233827 1.705000
v -0.000000 0.270000 1.570000
v -0.000000 0.233827 1.435000
v -0.000000 0.135000 1.336173
v -0.000000 0.000000 1.300000
v -0.000000 -0.135000 1.336173
v -0.000000 -0.233827 1.435000
v -0.000000 -0.270000 1.570000
v -0.000000 -0.233827 1.705000
v -0.000000 -0.135000 1.803827
v 0.476227 0.000000 1.777304
v 0.466865 0.135000 1.742363
v 0.441286 0.233827 1.646904
v 0.406346 0.270000 1.516504
v 0.371405 0.233827 1.386104
v 0.345827 0.135000 1.290644
v 0.336465 0.000000 1.255704
v 0.345827 -0.135000 1.290644
v 0.371405 -0.233827 1.386104
v 0.406346 -0.270000 1.516504
v 0.441286 -0.233827 1.646904
v 0.466865 -0.135000 1.742363
v 0.920000 0.000000 1.593487
v 0.901913 0.135000 1.562160
v 0.852500 0.233827 1.476573
v 0.785000 0.270000 1.359660
v 0.717500 0.233827 1.242746
v 0.668087 0.135000 1.157160
v 0.650000 0.000000 1.125833
v 0.668087 -0.135000 1.157160
v 0.717500 -0.233827 1.242746
v 0.785000 -0.270000 1.359660
v 0.852500 -0.233827 1.476573
v 0.901913 -0.135000 1.562160
v 1.301077 0.000000 1.301077
v 1.275498 0.135000 1.275498
v 1.205617 0.233827 1.205617
v 1.110158 0.270000 1.110158
v 1.014698 0.233827 1.014698
v 0.944817 0.135000 0.944817
v 0.919239 0.000000 0.919239
v 0.944817 -0.135000 0.944817
v 1.014698 -0.233827 1.014698
v 1.110158 -0.270000 1.110158
v 1.205617 -0.233827 1.205617
v 1.275498 -0.135000 1.275498
v 1.593487 0.000000 0.920000
v 1.562160 0.135000 0.901913
v 1.476573 0.233827 0.852500
v 1.359660 0.270000 0.785000
v 1.242746 0.233827 0.717500
v 1.157160 0.135000 0.668087
v 1.125833 0.000000 0.650000
v 1.157160 -0.135000 0.668087
v 1.242746 -0.233827 0.717500
v 1.359660 -0.270000 0.785000
v 1.476573 -0.233827 0.852500
v 1.562160 -0.135000 0.901913
v 1.777304 0.000000 0.476227
v 1.742363 0.135000 0.466865
v 1.646904 0.233827 0.441286
v 1.516504 0.270000 0.406346
v 1.386104 0.233827 0.371405
v 1.290644 0.135000 0.345827
v 1.255704 0.000000 0.336465
v 1.290644 -0.135000 0.345827
v 1.386104 -0.233827 0.371405
v 1.516504 -0.270000 0.406346
v 1.646904 -0.233827 0.441286
v 1.742363 -0.135000 0.466865
vn 0.9582 -0.2568 -0.1262
vn 0.9582 0.2568 -0.1262
vn 0.7041 0.7041 -0.0927
vn 0.2587 0.9654 -0.0341
vn -0.2587 0.9654 0.0341
vn -0.7041 0.7041 0.0927
vn -0.9582 0.2568 0.1262
vn -0.9582 -0.2568 0.1262
vn -0.7041 -0.7041 0.0927
vn -0.2587 -0.9654 0.0341
vn 0.2587 -0.9654 -0.0341
vn 0.7041 -0.7041 -0.0927
vn 0.8929 -0.2568 -0.3699
vn 0.8929 0.2568 -0.3699
vn 0.6561 0.7041 -0.2718
vn 0.2410 0.9654 -0.0998
vn -0.2410 0.9654 0.0998
vn -0.6561 0.7041 0.2718
vn -0.8929 0.2568 0.3699
vn -0.8929 -0.2568 0.3699
vn -0.6561 -0.7041 0.2718
vn -0.2410 -0.9654 0.0998
vn 0.2410 -0.9654 -0.0998
vn 0.6561 -0.7041 -0.2718
vn 0.7668 -0.2568 -0.5884
vn 0.7668 0.2568 -0.5884
vn 0.5634 0.7041 -0.4323
vn 0.2070 0.9654 -0.1588
vn -0.2070 0.9654 0.1588
vn -0.5634 0.7041 0.4323
vn -0.7668 0.2568 0.5884
vn -0.7668 -0.2568 0.5884
vn -0.5634 -0.7041 0.4323
vn -0.2070 -0.9654 0.1588
vn 0.2070 -0.9654 -0.1588
vn 0.5634 -0.7041 -0.4323
vn 0.5884 -0.2568 -0.7668
vn 0.5884 0.2568 -0.7668
vn 0.4323 0.7041 -0.5634
vn 0.1588 0.9654 -0.2070
vn -0.1588 0.9654 0.2070
vn -0.4323 0.7041 0.5634
vn -0.5884 0.2568 0.7668
vn -0.5884 -0.2568 0.7668
vn -0.4323 -0.7041 0.5634
vn -0.1588 -0.9654 0.2070
vn 0.1588 -0.9654 -0.2070
vn 0.4323 -0.7041 -0.5634
vn 0.3699 -0.2568 -0.8929
vn 0.3699 0.2568 -0.8929
vn 0.2718 0.7041 -0.6561
vn 0.0998 0.9654 -0.2410
vn -0.0998 0.9654 0.2410
vn -0.2718 0.7041 0.6561
vn -0.3699 0.2568 0.8929
vn -0.3699 -0.2568 0.8929
vn -0.2718 -0.7041 0.6561
vn -0.0998 -0.9654 0.2410
vn 0.0998 -0.9654 -0.2410
vn 0.2718 -0.7041 -0.6561
vn 0.1262 -0.2568 -0.9582
vn 0.1262 0.2568 -0.9582
vn 0.0927 0.7041 -0.7041
vn 0.0341 0.9654 -0.2587
vn -0.0341 0.9654 0.2587
vn -0.0927 0.7041 0.7041
vn -0.1262 0.2568 0.9582
vn -0.1262 -0.2568 0.9582
vn -0.0927 -0.7041 0.7041
vn -0.0341 -0.9654 0.2587
vn 0.0341 -0.9654 -0.2587
vn 0.0927 -0.7041 -0.7041
vn -0.1262 -0.2568 -0.9582
vn -0.1262 0.2568 -0.9582
vn -0.0927 0.7041 -0.7041
vn -0.0341 0.9654 -0.2587
vn 0.0341 0.9654 0.2587
vn 0.0927 0.7041 0.7041
vn 0.1262 0.2568 0.9582
vn 0.1262 -0.2568 0.9582
vn 0.0927 -0.7041 0.7041
vn 0.0341 -0.9654 0.2587
vn -0.0341 -0.9654 -0.2587
vn -0.0927 -0.7041 -0.7041
vn -0.3699 -0.2568 -0.8929
vn -0.3699 0.2568 -0.8929
vn -0.2718 0.7041 -0.6561
vn -0.0998 0.9654 -0.2410
vn 0.0998 0.9654 0.2410
vn 0.2718 0.7041 0.6561
vn 0.3699 0.2568 0.8929
vn 0.3699 -0.2568 0.8929
vn 0.2718 -0.7041 0.6561
vn 0.0998 -0.9654 0.2410
vn -0.0998 -0.9654 -0.2410
vn -0.2718 -0.7041 -0.6561
vn -0.5884 -0.2568 -0.7668
vn -0.5884 0.2568 -0.7668
vn -0.4323 0.7041 -0.5634
vn -0.1588 0.9654 -0.2070
vn 0.1588 0.9654 0.2070
vn 0.4323 0.7041 0.5634
vn 0.5884 0.2568 0.7668
vn 0.5884 -0.2568 0.7668
vn 0.4323 -0.7041 0.5634
vn 0.1588 -0.9654 0.2070
vn -0.1588 -0.9654 -0.2070
vn -0.4323 -0.7041 -0.5634
vn -0.7668 -0.2568 -0.5884
vn -0.7668 0.2568 -0.5884
vn -0.5634 0.7041 -0.4323
vn -0.2070 0.9654 -0.1588
vn 0.2070 0.9654 0.1588
vn 0.5634 0.7041 0.4323
vn 0.7668 0.2568 0.5884
vn 0.7668 -0.2568 0.5884
vn 0.5634 -0.7041 0.4323
vn 0.2070 -0.9654 0.1588
vn -0.2070 -0.9654 -0.1588
vn -0.5634 -0.7041 -0.4323
vn -0.8929 -0.2568 -0.3699
vn -0.8929 0.2568 -0.3699
vn -0.6561 0.7041 -0.2718
vn -0.2410 0.9654 -0.0998
vn 0.2410 0.9654 0.0998
vn 0.6561 0.7041 0.2718
vn 0.8929 0.2568 0.3699
vn 0.8929 -0.2568 0.3699
vn 0.6561 -0.7041 0.2718
vn 0.2410 -0.9654 0.0998
vn -0.2410 -0.9654 -0.0998
vn -0.6561 -0.7041 -0.2718
vn -0.9582 -0.2568 -0.1262
vn -0.9582 0.2568 -0.1262
vn -0.7041 0.7041 -0.0927
vn -0.2587 0.9654 -0.0341
vn 0.2587 0.9654 0.0341
vn 0.7041 0.7041 0.0927
vn 0.9582 0.2568 0.1262
vn 0.9582 -0.2568 0.1262
vn 0.7041 -0.7041 0.0927
vn 0.2587 -0.9654 0.0341
vn -0.2587 -0.9654 -0.0341
vn -0.7041 -0.7041 -0.0927
vt 0.000000 0.000000
vt 1.000000 0.000000
vt 1.000000 1.000000
vt 0.000000 1.000000
s 0
usemtl Material.001
f 13/1/1 1/2/1 12/3/1 24/4/1
f 1/1/2 13/2/2 14/3/2 2/4/2
f 2/1/3 14/2/3 15/3/3 3/4/3
f 3/1/4 15/2/4 16/3/4 4/4/4
f 4/1/5 16/2/5 17/3/5 5/4/5
f 5/1/6 17/2/6 18/3/6 6/4/6
f 6/1/7 18/2/7 19/3/7 7/4/7
f 7/1/8 19/2/8 20/3/8 8/4/8
f 8/1/9 20/2/9 21/3/9 9/4/9
f 9/1/10 21/2/10 22/3/10 10/4/10
f 10/1/11 22/2/11 23/3/11 11/4/11
f 11/1/12 23/2/12 24/3/12 12/4/12
f 25/1/13 13/2/13 24/3/13 36/4/13
f 13/1/14 25/2/14 26/3/14 14/4/14
f 14/1/15 26/2/15 27/3/15 15/4/15
f 15/1/16 27/2/16 28/3/16 16/4/16
f 16/1/17 28/2/17 29/3/17 17/4/17
f 17/1/18 29/2/18 30/3/18 18/4/18
f 18/1/19 30/2/19 31/3/19 19/4/19
f 19/1/20 31/2/20 32/3/20 20/4/20
f 20/1/21 32/2/21 33/3/21 21/4/21
f 21/1/22 33/2/22 34/3/22 22/4/22
f 22/1/23 34/2/23 35/3/23 23/4/23
f 23/1/24 35/2/24 36/3/24 24/4/24
f 37/1/25 25/2/25 36/3/25 48/4/25
f 25/1/26 37/2/26 38/3/26 26/4/26
f 26/1/27 38/2/27 39/3/27 27/4/27
f 27/1/28 39/2/28 40/3/28 28/4/28
f 28/1/29 40/2/29 41/3/29 29/4/29
f 29/1/30 41/2/30 42/3/30 30/4/30
f 30/1/31 42/2/31 43/3/31 31/4/31
f 31/1/32 43/2/32 44/3/32 32/4/32
f 32/1/33 44/2/33 45/3/33 33/4/33
f 33/1/34 45/2/34 46/3/34 34/4/34
f 34/1/35 46/2/35 47/3/35 35/4/35
f 35/1/36 47/2/36 48/3/36 36/4/36
f 49/1/37 37/2/37 48/3/37 60/4/37
f 37/1/38 49/2/38 50/3/38 38/4/38
f 38/1/39 50/2/39 51/3/39 39/4/39
f 39/1/40 51/2/40 52/3/40 40/4/40
f 40/1/41 52/2/41 53/3/41 41/4/41
f 41/1/42 53/2/42 54/3/42 42/4/42
f 42/1/43 54/2/43 55/3/43 43/4/43
f 43/1/44 55/2/44 56/3/44 44/4/44
f 44/1/45 56/2/45 57/3/45 45/4/45
f 45/1/46 57/2/46 58/3/46 46/4/46
f 46/1/47 58/2/47 59/3/47 47/4/47
f 47/1/48 59/2/48 60/3/48 48/4/48
f 61/1/49 49/2/49 60/3/49 72/4/49
f 49/1/50 61/2/50 62/3/50 50/4/50
f 50/1/51 62/2/51 63/3/51 51/4/51
f 51/1/52 63/2/52 64/3/52 52/4/52
f 52/1/53 64/2/53 65/3/53 53/4/53
f 53/1/54 65/2/54 66/3/54 54/4/54
f 54/1/55 66/2/55 67/3/55 55/4/55
f 55/1/56 67/2/56 68/3/56 56/4/56
f 56/1/57 68/2/57 69/3/57 57/4/57
f 57/1/58 69/2/58 70/3/58 58/4/58
f 58/1/59 70/2/59 71/3/59 59/4/59
f 59/1/60 71/2/60 72/3/60 60/4/60
f 73/1/61 61/2/61 72/3/61 84/4/61
f 61/1/62 73/2/62 74/3/62 62/4/62
f 62/1/63 74/2/63 75/3/63 63/4/63
f 63/1/64 75/2/64 76/3/64 64/4/64
f 64/1/65 76/2/65 77/3/65 65/4/65
f 65/1/66 77/2/66 78/3/66 66/4/66
f 66/1/67 78/2/67 79/3/67 67/4/67
f 67/1/68 79/2/68 80/3/68 68/4/68
f 68/1/69 80/2/69 81/3/69 69/4/69
f 69/1/70 81/2/70 82/3/70 70/4/70
f 70/1/71 82/2/71 83/3/71 71/4/71
f 71/1/72 83/2/72 84/3/72 72/4/72
f 85/1/73 73/2/73 84/3/73 96/4/73
f 73/1/74 85/2/74 86/3/74 74/4/74
f 74/1/75 86/2/75 87/3/75 75/4/75
f 75/1/76 87/2/76 88/3/76 76/4/76
f 76/1/77 88/2/77 89/3/77 77/4/77
f 77/1/78 89/2/78 90/3/78 78/4/78
f 78/1/79 90/2/79 91/3/79 79/4/79
f 79/1/80 91/2/80 92/3/80 80/4/80
f 80/1/81 92/2/81 93/3/81 81/4/81
f 81/1/82 93/2/82 94/3/82 82/4/82
f 82/1/83 94/2/83 95/3/83 83/4/83
f 83/1/84 95/2/84 96/3/84 84/4/84
f 97/1/85 85/2/85 96/3/85 108/4/85
f 85/1/86 97/2/86 98/3/86 86/4/86
f 86/1/87 98/2/87 99/3/87 87/4/87
f 87/1/88 99/2/88 100/3/88 88/4/88
f 88/1/89 100/2/89 101/3/89 89/4/89
f 89/1/90 101/2/90 102/3/90 90/4/90
f 90/1/91 102/2/91 103/3/91 91/4/91
f 91/1/92 103/2/92 104/3/92 92/4/92
f 92/1/93 104/2/93 105/3/93 93/4/93
f 93/1/94 105/2/94 106/3/94 94/4/94
f 94/1/95 106/2/95 107/3/95 95/4/95
f 95/1/96 107/2/96 108/3/96 96/4/96
f 109/1/97 97/2/97 108/3/97 120/4/97
f 97/1/98 109/2/98 110/3/98 98/4/98
f 98/1/99 110/2/99 111/3/99 99/4/99
f 99/1/100 111/2/100 112/3/100 100/4/100
f 100/1/101 112/2/101 113/3/101 101/4/101
f 101/1/102 113/2/102 114/3/102 102/4/102
f 102/1/103 114/2/103 115/3/103 103/4/103
f 103/1/104 115/2/104 116/3/104 104/4/104
f 104/1/105 116/2/105 117/3/105 105/4/105
f 105/1/106 117/2/106 118/3/106 106/4/106
f 106/1/107 118/2/107 119/3/107 107/4/107
f 107/1/108 119/2/108 120/3/108 108/4/108
f 121/1/109 109/2/109 120/3/109 132/4/109
f 109/1/110 121/2/110 122/3/110 110/4/110
f 110/1/111 122/2/111 123/3/111 111/4/111
f 111/1/112 123/2/112 124/3/112 112/4/112
f 112/1/113 124/2/113 125/3/113 113/4/113
f 113/1/114 125/2/114 126/3/114 114/4/114
f 114/1/115 126/2/115 127/3/115 115/4/115
f 115/1/116 127/2/116 128/3/116 116/4/116
f 116/1/117 128/2/117 129/3/117 117/4/117
f 117/1/118 129/2/118 130/3/118 118/4/118
f 118/1/119 130/2/119 131/3/119 119/4/119
f 119/1/120 131/2/120 132/3/120 120/4/120
f 133/1/121 121/2/121 132/3/121 144/4/121
f 121/1/122 133/2/122 134/3/122 122/4/122
f 122/1/123 134/2/123 135/3/123 123/4/123
f 123/1/124 135/2/124 136/3/124 124/4/124
f 124/1/125 136/2/125 137/3/125 125/4/125
f 125/1/126 137/2/126 138/3/126 126/4/126
f 126/1/127 138/2/127 139/3/127 127/4/127
f 127/1/128 139/2/128 140/3/128 128/4/128
f 128/1/129 140/2/129 141/3/129 129/4/129
f 129/1/130 141/2/130 142/3/130 130/4/130
f 130/1/131 142/2/131 143/3/131 131/4/131
f 131/1/132 143/2/132 144/3/132 132/4/132
f 145/1/133 133/2/133 144/3/133 156/4/133
f 133/1/134 145/2/134 146/3/134 134/4/134
f 134/1/135 146/2/135 147/3/135 135/4/135
f 135/1/136 147/2/136 148/3/136 136/4/136
f 136/1/137 148/2/137 149/3/137 137/4/137
f 137/1/138 149/2/138 150/3/138 138/4/138
f 138/1/139 150/2/139 151/3/139 139/4/139
f 139/1/140 151/2/140 152/3/140 140/4/140
f 140/1/141 152/2/141 153/3/141 141/4/141
f 141/1/142 153/2/142 154/3/142 142/4/142
f 142/1/143 154/2/143 155/3/143 143/4/143
f 143/1/144 155/2/144 156/3/144 144/4/144
f 157/1/8 145/2/8 156/3/8 168/4/8
f 145/1/7 157/2/7 158/3/7 146/4/7
f 146/1/6 158/2/6 159/3/6 147/4/6
f 147/1/5 159/2/5 160/3/5 148/4/5
f 148/1/4 160/2/4 161/3/4 149/4/4
f 149/1/3 161/2/3 162/3/3 150/4/3
f 150/1/2 162/2/2 163/3/2 151/4/2
f 151/1/1 163/2/1 164/3/1 152/4/1
f 152/1/12 164/2/12 165/3/12 153/4/12
f 153/1/11 165/2/11 166/3/11 154/4/11
f 154/1/10 166/2/10 167/3/10 155/4/10
f 155/1/9 167/2/9 168/3/9 156/4/9
f 169/1/20 157/2/20 168/3/20 180/4/20
f 157/1/19 169/2/19 170/3/19 158/4/19
f 158/1/18 170/2/18 171/3/18 159/4/18
f 159/1/17 171/2/17 172/3/17 160/4/17
f 160/1/16 172/2/16 173/3/16 161/4/16
f 161/1/15 173/2/15 174/3/15 162/4/15
f 162/1/14 174/2/14 175/3/14 163/4/14
f 163/1/13 175/2/13 176/3/13 164/4/13
f 164/1/24 176/2/24 177/3/24 165/4/24
f 165/1/23 177/2/23 178/3/23 166/4/23
f 166/1/22 178/2/22 179/3/22 167/4/22
f 167/1/21 179/2/21 180/3/21 168/4/21
f 181/1/32 169/2/32 180/3/32 192/4/32
f 169/1/31 181/2/31 182/3/31 170/4/31
f 170/1/30 182/2/30 183/3/30 171/4/30
f 171/1/29 183/2/29 184/3/29 172/4/29
f 172/1/28 184/2/28 185/3/28 173/4/28
f 173/1/27 185/2/27 186/3/27 174/4/27
f 174/1/26 186/2/26 187/3/26 175/4/26
f 175/1/25 187/2/25 188/3/25 176/4/25
f 176/1/36 188/2/36 189/3/36 177/4/36
f 177/1/35 189/2/35 190/3/35 178/4/35
f 178/1/34 190/2/34 191/3/34 179/4/34
f 179/1/33 191/2/33 192/3/33 180/4/33
f 193/1/44 181/2/44 192/3/44 204/4/44
f 181/1/43 193/2/43 194/3/43 182/4/43
f 182/1/42 194/2/42 195/3/42 183/4/42
f 183/1/41 195/2/41 196/3/41 184/4/41
f 184/1/40 196/2/40 197/3/40 185/4/40
f 185/1/39 197/2/39 198/3/39 186/4/39
f 186/1/38 198/2/38 199/3/38 187/4/38
f 187/1/37 199/2/37 200/3/37 188/4/37
f 188/1/48 200/2/48 201/3/48 189/4/48
f 189/1/47 201/2/47 202/3/47 190/4/47
f 190/1/46 202/2/46 203/3/46 191/4/46
f 191/1/45 203/2/45 204/3/45 192/4/45
f 205/1/56 193/2/56 204/3/56 216/4/56
f 193/1/55 205/2/55 206/3/55 194/4/55
f 194/1/54 206/2/54 207/3/54 195/4/54
f 195/1/53 207/2/53 208/3/53 196/4/53
f 196/1/52 208/2/52 209/3/52 197/4/52
f 197/1/51 209/2/51 210/3/51 198/4/51
f 198/1/50 210/2/50 211/3/50 199/4/50
f 199/1/49 211/2/49 212/3/49 200/4/49
f 200/1/60 212/2/60 213/3/60 201/4/60
f 201/1/59 213/2/59 214/3/59 202/4/59
f 202/1/58 214/2/58 215/3/58 203/4/58
f 203/1/57 215/2/57 216/3/57 204/4/57
f 217/1/68 205/2/68 216/3/68 228/4/68
f 205/1/67 217/2/67 218/3/67 206/4/67
f 206/1/66 218/2/66 219/3/66 207/4/66
f 207/1/65 219/2/65 220/3/65 208/4/65
f 208/1/64 220/2/64 221/3/64 209/4/64
f 209/1/63 221/2/63 222/3/63 210/4/63
f 210/1/62 222/2/62 223/3/62 211/4/62
f 211/1/61 223/2/61 224/3/61 212/4/61
f 212/1/72 224/2/72 225/3/72 213/4/72
f 213/1/71 225/2/71 226/3/71 214/4/71
f 214/1/70 226/2/70 227/3/70 215/4/70
f 215/1/69 227/2/69 228/3/69 216/4/69
f 229/1/80 217/2/80 228/3/80 240/4/80
f 217/1/79 229/2/79 230/3/79 218/4/79
f 218/1/78 230/2/78 231/3/78 219/4/78
f 219/1/77 231/2/77 232/3/77 220/4/77
f 220/1/76 232/2/76 233/3/76 221/4/76
f 221/1/75 233/2/75 234/3/75 222/4/75
f 222/1/74 234/2/74 235/3/74 223/4/74
f 223/1/73 235/2/73 236/3/73 224/4/73
f 224/1/84 236/2/84 237/3/84 225/4/84
f 225/1/83 237/2/83 238/3/83 226/4/83
f 226/1/82 238/2/82 239/3/82 227/4/82
f 227/1/81 239/2/81 240/3/81 228/4/81
f 241/1/92 229/2/92 240/3/92 252/4/92
f 229/1/91 241/2/91 242/3/91 230/4/91
f 230/1/90 242/2/90 243/3/90 231/4/90
f 231/1/89 243/2/89 244/3/89 232/4/89
f 232/1/88 244/2/88 245/3/88 233/4/88
f 233/1/87 245/2/87 246/3/87 234/4/87
f 234/1/86 246/2/86 247/3/86 235/4/86
f 235/1/85 247/2/85 248/3/85 236/4/85
f 236/1/96 248/2/96 249/3/96 237/4/96
f 237/1/95 249/2/95 250/3/95 238/4/95
f 238/1/94 250/2/94 251/3/94 239/4/94
f 239/1/93 251/2/93 252/3/93 240/4/93
f 253/1/104 241/2/104 252/3/104 264/4/104
f 241/1/103 253/2/103 254/3/103 242/4/103
f 242/1/102 254/2/102 255/3/102 243/4/102
f 243/1/101 255/2/101 256/3/101 244/4/101
f 244/1/100 256/2/100 257/3/100 245/4/100
f 245/1/99 257/2/99 258/3/99 246/4/99
f 246/1/98 258/2/98 259/3/98 247/4/98
f 247/1/97 259/2/97 260/3/97 248/4/97
f 248/1/108 260/2/108 261/3/108 249/4/108
f 249/1/107 261/2/107 262/3/107 250/4/107
f 250/1/106 262/2/106 263/3/106 251/4/106
f 251/1/105 263/2/105 264/3/105 252/4/105
f 265/1/116 253/2/116 264/3/116 276/4/116
f 253/1/115 265/2/115 266/3/115 254/4/115
f 254/1/114 266/2/114 267/3/114 255/4/114
f 255/1/113 267/2/113 268/3/113 256/4/113
f 256/1/112 268/2/112 269/3/112 257/4/112
f 257/1/111 269/2/111 270/3/111 258/4/111
f 258/1/110 270/2/110 271/3/110 259/4/110
f 259/1/109 271/2/109 272/3/109 260/4/109
f 260/1/120 272/2/120 273/3/120 261/4/120
f 261/1/119 273/2/119 274/3/119 262/4/119
f 262/1/118 274/2/118 275/3/118 263/4/118
f 263/1/117 275/2/117 276/3/117 264/4/117
f 277/1/128 265/2/128 276/3/128 288/4/128
f 265/1/127 277/2/127 278/3/127 266/4/127
f 266/1/126 278/2/126 279/3/126 267/4/126
f 267/1/125 279/2/125 280/3/125 268/4/125
f 268/1/124 280/2/124 281/3/124 269/4/124
f 269/1/123 281/2/123 282/3/123 270/4/123
f 270/1/122 282/2/122 283/3/122 271/4/122
f 271/1/121 283/2/121 284/3/121 272/4/121
f 272/1/132 284/2/132 285/3/132 273/4/132
f 273/1/131 285/2/131 286/3/131 274/4/131
f 274/1/130 286/2/130 287/3/130 275/4/130
f 275/1/129 287/2/129 288/3/129 276/4/129
f 1/1/140 277/2/140 288/3/140 12/4/140
f 277/1/139 1/2/139 2/3/139 278/4/139
f 278/1/138 2/2/138 3/3/138 279/4/138
f 279/1/137 3/2/137 4/3/137 280/4/137
f 280/1/136 4/2/136 5/3/136 281/4/136
f 281/1/135 5/2/135 6/3/135 282/4/135
f 282/1/134 6/2/134 7/3/134 283/4/134
f 283/1/133 7/2/133 8/3/133 284/4/133
f 284/1/144 8/2/144 9/3/144 285/4/144
f 285/1/143 9/2/143 10/3/143 286/4/143
f 286/1/142 10/2/142 11/3/142 287/4/142
f 287/1/141 11/2/141 12/3/141 288/4/141
