# Blender 4.0.2
# www.blender.org
mtllib room1_collider.mtl
o room1_collider
v -5.000000 0.000000 5.000000
v 5.000000 0.000000 5.000000
v 5.000000 0.000000 -1.000000
v 5.000000 0.000000 -3.000000
v -5.000000 0.000000 -5.000000
v 5.000000 0.000000 -5.000000
v -5.000000 2.000000 5.000000
v 5.000000 2.000000 5.000000
v 5.000000 2.000000 -1.000000
v 5.000000 2.000000 -3.000000
v -5.000000 2.000000 -5.000000
v 5.000000 2.000000 -5.000000
v 9.000001 0.000000 -1.000000
v 9.000001 0.000000 -3.000000
v 9.000001 2.000000 -1.000000
v 9.000001 2.000000 -3.000000
vn -0.0000 -0.0000 1.0000
vn -1.0000 -0.0000 -0.0000
vn 1.0000 -0.0000 -0.0000
vn -0.0000 -0.0000 -1.0000
vt 0.666667 0.833333
vt 0.833333 0.416667
vt 0.833333 0.833333
vt 0.416667 0.416667
vt 0.666667 0.833333
vt 0.416667 0.833333
vt 0.000000 0.416667
vt 0.416667 0.000000
vt 0.000000 0.833333
vt 0.833333 0.000000
vt 1.000000 0.416667
vt 0.916667 0.416667
vt 0.833333 0.833333
vt 0.833333 0.416667
vt 1.000000 0.416667
vt 0.916667 0.833333
vt 0.916667 0.416667
vt 0.666667 0.416667
vt 0.666667 0.416667
vt 0.000000 0.000000
vt 1.000000 0.000000
vt 0.916667 0.833333
vt 1.000000 0.833333
s 0
usemtl room1
f 14/1/1 10/2/1 4/3/1
f 8/4/2 3/5/2 2/6/2
f 5/7/3 7/8/3 1/4/3
f 7/7/4 2/6/4 1/9/4
f 9/10/4 13/11/4 3/2/4
f 6/4/1 11/10/1 5/2/1
f 16/12/2 13/13/2 15/14/2
f 12/15/2 4/16/2 10/17/2
f 14/1/1 16/18/1 10/2/1
f 8/4/2 9/19/2 3/5/2
f 5/7/3 11/20/3 7/8/3
f 7/7/4 8/4/4 2/6/4
f 9/10/4 15/21/4 13/11/4
f 6/4/1 12/8/1 11/10/1
f 16/12/2 14/22/2 13/13/2
f 12/15/2 6/23/2 4/16/2
